:SAMPLES-PER-SECOND 30
:FULLY-SPECIFIED
:DEGREES
113
root  0.794538 37.4401 0.301242 46.3006 -84.7921 -52.4235
RightUpLeg  -18.1215 -7.20325 6.69453
RightLeg  33.1462 0.855452 0.334986
RightFoot  -8.83937 0.0340942 -4.29623
RightToes  -4.65661e-009 0 -3.6325e-017
Spine  7.12301 -0.915631 15.1429
Spine1  7.06764 1.43546 -1.69214
HEad  -2.99346 -1.90746 -5.84399
LeftShoulder1  -0.454923 4.64991 -33.5416
LeftArm  11.3726 6.90091 -43.4346
LeftForeArm  26.7762 -16.9454 -6.90265
LeftHand  -0.0389854 6.84974 -0.114538
RightShoulder  -0.796121 -5.7283 29.161
RightArm  14.8802 -1.19327 46.5096
RightForeArm  14.9691 11.0012 6.7297
RightHand  -0.0843672 3.32097 -1.36949
LeftUpLeg  -2.58607 1.36666 6.75458
LeftLeg  63.0041 -0.988044 -1.5456
LeftFoot  9.59975 1.15368 -6.43798
LeftToes  9.86798e-010 -1.28139e-010 1.4132e-011
114
root  -0.363528 37.7471 0.140963 42.8241 -84.9754 -49.3216
RightUpLeg  -14.9442 -7.80498 6.31561
RightLeg  31.9101 1.40904 0.683024
RightFoot  -10.2063 -0.0292891 -4.01672
RightToes  -4.65661e-009 0 -3.6325e-017
Spine  7.59329 -0.649368 15.4841
Spine1  7.35431 2.00366 -2.39907
HEad  -3.07778 -2.26364 -5.19857
LeftShoulder1  -0.417277 4.56429 -33.2026
LeftArm  12.6557 8.48536 -42.7034
LeftForeArm  24.7846 -17.6904 -6.53009
LeftHand  -0.0534491 7.75658 -0.515874
RightShoulder  -0.801026 -5.75283 28.993
RightArm  16.1874 0.847564 46.9993
RightForeArm  13.6344 13.1546 6.29639
RightHand  -0.10797 2.95331 -1.72382
LeftUpLeg  -7.30658 0.292338 6.3836
LeftLeg  67.3417 -1.18792 -2.3895
LeftFoot  6.24858 0.694338 -4.76852
LeftToes  9.86798e-010 -1.28139e-010 1.4132e-011
115
root  -1.51201 38.0674 0.0432149 42.6079 -85.7921 -48.9916
RightUpLeg  -12.1882 -8.05267 5.582
RightLeg  30.3905 2.3775 1.24604
RightFoot  -11.164 -0.0695824 -3.86758
RightToes  -4.65661e-009 0 -3.6325e-017
Spine  7.22545 -0.143656 16.1249
Spine1  7.90795 2.86095 -3.89952
HEad  -3.11388 -2.38678 -5.11533
LeftShoulder1  -0.405847 4.54386 -32.8809
LeftArm  11.0387 9.978 -42.2538
LeftForeArm  25.5506 -17.5378 -6.46292
LeftHand  -0.0580146 7.6312 -0.785809
RightShoulder  -0.787591 -5.73352 28.6909
RightArm  17.604 2.57769 47.7027
RightForeArm  11.1037 15.8511 5.5987
RightHand  -0.131318 3.80488 -1.92037
LeftUpLeg  -11.6863 -0.549448 5.4127
LeftLeg  68.1833 -1.16802 -2.4698
LeftFoot  5.2391 0.653232 -4.69397
LeftToes  9.86798e-010 -1.28139e-010 1.4132e-011
116
root  -2.68173 38.3777 -0.0396815 42.5706 -86.7463 -48.7968
RightUpLeg  -9.3497 -8.59168 4.60045
RightLeg  28.6177 3.69528 1.93404
RightFoot  -11.9477 -0.100433 -3.76127
RightToes  -4.65661e-009 0 -3.6325e-017
Spine  7.12266 0.354965 16.451
Spine1  7.82397 3.57838 -5.02465
HEad  -2.14196 -2.93399 -5.83885
LeftShoulder1  -0.442931 4.63442 -33.0336
LeftArm  11.1493 11.697 -41.3235
LeftForeArm  25.1341 -17.9301 -6.19838
LeftHand  -0.0540235 7.65504 -0.566166
RightShoulder  -0.767056 -5.71059 28.1241
RightArm  18.3712 3.51797 48.3352
RightForeArm  8.8448 19.4008 4.71073
RightHand  -0.134976 4.03668 -1.93034
LeftUpLeg  -15.3388 -1.28349 4.35473
LeftLeg  66.1767 -1.54908 -3.15196
LeftFoot  3.57433 0.465514 -3.72517
LeftToes  9.86798e-010 -1.28139e-010 1.4132e-011
117
root  -3.87402 38.6654 -0.13698 47.2101 -87.8244 -53.4506
RightUpLeg  -6.10665 -8.83387 3.65852
RightLeg  26.3819 4.83467 2.43955
RightFoot  -12.6087 -0.125713 -3.62823
RightToes  -4.65661e-009 0 -3.6325e-017
Spine  7.11272 0.84716 16.6624
Spine1  7.64076 4.28533 -6.42418
HEad  -1.70092 -2.74456 -6.29036
LeftShoulder1  -0.448256 4.65189 -32.8951
LeftArm  11.1111 13.5369 -40.5201
LeftForeArm  24.9107 -18.198 -5.99847
LeftHand  -0.0664766 7.43127 -1.3572
RightShoulder  -0.806711 -5.81051 28.3572
RightArm  18.5376 4.60437 48.0471
RightForeArm  7.38089 23.3949 4.62108
RightHand  -0.16872 4.50379 -2.26549
LeftUpLeg  -17.8632 -1.97416 3.47289
LeftLeg  61.5171 -2.07968 -3.58121
LeftFoot  0.827074 0.34167 -3.24358
LeftToes  9.86798e-010 -1.28139e-010 1.4132e-011
118
root  -5.04683 38.8903 -0.221317 57.4023 -88.7951 -63.6611
RightUpLeg  -2.88436 -9.56603 2.44421
RightLeg  24.1452 6.27621 3.15917
RightFoot  -13.2574 -0.153583 -3.84406
RightToes  -4.65661e-009 0 -3.6325e-017
Spine  7.12832 1.17312 16.6936
Spine1  7.49467 4.79383 -7.93789
HEad  -1.56113 -2.69159 -6.74143
LeftShoulder1  -0.427357 4.61074 -32.4675
LeftArm  9.10315 15.131 -40.3543
LeftForeArm  26.3666 -17.6556 -6.1444
LeftHand  -0.0557197 7.11875 -1.12702
RightShoulder  -0.790613 -5.76903 28.2763
RightArm  16.4569 5.35534 48.0676
RightForeArm  8.76396 27.5054 5.45804
RightHand  -0.176855 4.67049 -2.33309
LeftUpLeg  -19.4711 -2.42427 2.65122
LeftLeg  54.4683 -2.44178 -3.21771
LeftFoot  -0.966217 0.241681 -2.61335
LeftToes  9.86798e-010 -1.28139e-010 1.4132e-011
